<svg height='100px' width='100px'  fill="#000000" xmlns="http://www.w3.org/2000/svg" xmlns:xlink="http://www.w3.org/1999/xlink" version="1.1" x="0px" y="0px" viewBox="0 0 100 100" enable-background="new 0 0 100 100" xml:space="preserve"><path fill="#000000" d="M74.25,15c-0.544-0.055-1.083-0.14-1.621-0.223c-0.195-1.643-1.87-3.105-3.64-1.935  c-0.468,0.309-1.002,0.575-1.56,0.824c-3.411-0.876-6.795-1.88-10.314-2.207C49.691,10.77,41.952,10.794,34.5,11  c-2.902,0.08-3.299,3.989-0.665,4.911c0.659,0.23,1.22,0.305,1.915,0.339c0.51,0.025,0.929-0.089,1.277-0.281  c6.139-0.077,12.3,0.139,18.428,0.336c1.135,0.037,2.26,0.16,3.381,0.337c-3.772,1.635-7.332,3.619-10.754,5.898  c-7.442,4.956-14.111,11.302-19.86,18.12C18.189,52.559,8.863,68.191,9.25,84.25c0.078,3.219,5.078,3.226,5,0  c-0.379-15.714,9.422-30.778,19.354-42.212c5.341-6.148,11.644-11.612,18.413-16.12c3.782-2.519,7.933-4.448,12.149-6.112  c1.064-0.42,2.291-0.732,3.505-1.081c0.841,0.215,1.684,0.419,2.529,0.603c-2.22,3.884-3.944,7.952-5.361,12.258  c-0.816,2.479-1.195,7.572-3.107,9.397c-2.336,2.23,1.204,5.76,3.536,3.536c2.232-2.13,2.924-6.576,3.773-9.395  c1.763-5.852,3.981-11.241,7.368-16.361C77.551,17.035,75.993,15.176,74.25,15z"></path></svg>