<svg height='10px' width='10px'  fill="#000000" xmlns:dc="http://purl.org/dc/elements/1.1/" xmlns:cc="http://creativecommons.org/ns#" xmlns:rdf="http://www.w3.org/1999/02/22-rdf-syntax-ns#" xmlns:svg="http://www.w3.org/2000/svg" xmlns="http://www.w3.org/2000/svg" xmlns:sodipodi="http://sodipodi.sourceforge.net/DTD/sodipodi-0.dtd" xmlns:inkscape="http://www.inkscape.org/namespaces/inkscape" style="" xml:space="preserve" version="1.1" viewBox="0 0 64 64" x="0px" y="0px" fill-rule="evenodd" clip-rule="evenodd" stroke-linejoin="round" stroke-miterlimit="2"><path style="" d="M 40,48.999815 V 30.99979 c 0,-1.104002 -0.896,-2.000003 -2,-2.000003 -1.104,0 -2,0.896001 -2,2.000003 v 18.000025 c 0,1.104001 0.896,2.000003 2,2.000003 1.104,0 2,-0.896002 2,-2.000003 z" stroke-width="0.58346" fill="#000000"></path><path style="" d="M 28,48.999815 V 30.99979 c 0,-1.104002 -0.896,-2.000003 -2,-2.000003 -1.104,0 -2,0.896001 -2,2.000003 v 18.000025 c 0,1.104001 0.896,2.000003 2,2.000003 1.104,0 2,-0.896002 2,-2.000003 z" stroke-width="0.58346" fill="#000000"></path><path style="" d="m 22,10.99968 v -2 c 0,-3.313 2.686,-6 6,-6 2.443,0 5.557,0 8,0 3.314,0 6,2.687 6,6 v 2 h 8 c 1.591,0 3.117,0.632 4.243,1.757 1.125,1.125 1.757,2.651 1.757,4.243 v 4 c 0,1.105 -0.895,2 -2,2 h -4 v 32 c 0,1.591 -0.632,3.117 -1.757,4.243 -1.126,1.125 -2.652,1.757 -4.243,1.757 H 20 c -1.591,0 -3.117,-0.632 -4.243,-1.757 -1.125,-1.126 -1.757,-2.652 -1.757,-4.243 v -32 h -4 c -1.105,0 -2,-0.895 -2,-2 0,0 0,-2 0,-4 0,-1.592 0.632,-3.118 1.757,-4.243 1.126,-1.125 2.652,-1.757 4.243,-1.757 z m 24,12 H 18 v 32 c 0,0.53 0.211,1.039 0.586,1.414 0.375,0.375 0.884,0.586 1.414,0.586 h 24 c 0.53,0 1.039,-0.211 1.414,-0.586 0.375,-0.375 0.586,-0.884 0.586,-1.414 z m 6,-4 v -2 c 0,-0.531 -0.211,-1.04 -0.586,-1.415 -0.375,-0.375 -0.884,-0.585 -1.414,-0.585 -8.367,0 -27.633,0 -36,0 -0.53,0 -1.039,0.21 -1.414,0.585 -0.375,0.375 -0.586,0.884 -0.586,1.415 v 2 z m -14,-8 v -2 c 0,-1.104 -0.895,-2 -2,-2 -2.443,0 -5.557,0 -8,0 -1.105,0 -2,0.896 -2,2 v 2 z" fill="#000000"></path></svg>