<svg height='100px' width='100px'  fill="#000000" xmlns="http://www.w3.org/2000/svg" xmlns:xlink="http://www.w3.org/1999/xlink" version="1.1" x="0px" y="0px" viewBox="0 0 100 100" style="enable-background:new 0 0 100 100;" xml:space="preserve"><path d="M69.92,39.96L66.65,13.7c-0.27-1.56-1.61-2.7-3.19-2.7H34.55c-1.58,0-2.93,1.13-3.21,2.78l-3.25,26.08  c-1.33,7.82,1.53,15.64,7.46,20.41c3.27,2.63,7.28,4.23,11.45,4.62v15.14l-9.25,7.4c-0.66,0.53-0.92,1.42-0.64,2.22  C37.39,90.46,38.15,91,39,91h20c0.85,0,1.61-0.54,1.89-1.34c0.28-0.8,0.03-1.69-0.64-2.22L51,80.04V64.9  c4.17-0.39,8.17-2,11.45-4.62C68.38,55.51,71.24,47.69,69.92,39.96z M53.3,87h-8.6l4.3-3.44L53.3,87z M33.6,28l1.62-13h27.56  l1.62,13H33.6z"></path></svg>