<svg height='100px' width='100px'  fill="#000000" xmlns="http://www.w3.org/2000/svg" xmlns:xlink="http://www.w3.org/1999/xlink" version="1.1" x="0px" y="0px" viewBox="0 0 100 100" enable-background="new 0 0 100 100" xml:space="preserve"><g><path d="M27.209,5.382l-0.333,15.851c0,0,1.69-0.558,5.371-0.598c4.237-0.045,4.901,0.598,4.901,0.598V5.382   c0,0,0.56,0.116,0.56-0.819c0,0,0.244-2.844-0.56-2.923c0,0-0.318-1.639-5.169-1.639c-4.504,0-4.769,1.641-4.769,1.641   c-0.805,0.079-0.561,2.923-0.561,2.923C26.648,5.499,27.209,5.382,27.209,5.382z"></path><path d="M32.016,22.492c-3.45,0-5.191,0.607-5.191,0.607C25.188,28.682,19,31.568,19,41.156v22.69v4.405v28.514   c0,1.544,6.317,3.255,12.727,3.275c6.601,0.023,13.3-1.688,13.3-3.275V68.252l-0.003-4.405l0.012,0.172V41.329   c0-9.59-6.252-12.647-7.886-18.23C37.149,23.099,35.556,22.492,32.016,22.492z M42.629,68.92c0,0-4.871,0.464-10.787,0.464   c-7.31,0-10.44-0.464-10.44-0.464V40.964c0,0,3.942-0.87,10.151-0.87c6.206,0,11.076,0.87,11.076,0.87V68.92z"></path><path d="M80.156,97.033l-12.084-2.581c-1.601-0.492-1.324-0.532-1.402-1.97V68.45c0.141-2.173,0.166-3.356,1.547-4.346   c15.4-10.173,11.161-17.931,8.199-38.823H76.39c0,0-3.467-2.154-10.935-2.154c-7.469,0-11.676,2.154-11.676,2.154   c-2.966,20.892-7.203,28.65,8.197,38.823c1.381,0.989,1.406,2.173,1.551,4.346v24.032c-0.078,1.422,0.192,1.478-1.407,1.97   l-12.083,2.581v0.051c0,0.664,6.748,2.493,15.07,2.493s15.07-1.829,15.07-2.493L80.156,97.033z M65.107,62.143   c-1.39,0-2.514-0.69-2.514-0.69c-9.393-6.202-9.848-10.913-9.221-18.404c0,0,3.465-1.294,11.648-1.294   c8.08,0,11.822,1.294,11.822,1.294c0.567,7.131,0.174,12.202-9.222,18.404C67.622,61.452,66.496,62.143,65.107,62.143z"></path></g></svg>