<svg height='100px' width='100px'  fill="#000000" xmlns="http://www.w3.org/2000/svg" xmlns:xlink="http://www.w3.org/1999/xlink" version="1.1" x="0px" y="0px" viewBox="0 0 102 100" style="enable-background:new 0 0 102 100;" xml:space="preserve"><g><path d="M42.4,59.1h14.2c0.8,0,1.5-0.7,1.5-1.5s-0.7-1.5-1.5-1.5H42.4c-0.8,0-1.5,0.7-1.5,1.5S41.6,59.1,42.4,59.1z"></path><path d="M90.8,88.9h-4.5l1.8-8.2c0.1-0.2,0-0.5,0-0.7L76.8,37c0-0.1-0.1-0.2-0.2-0.4c-0.3-0.8-0.9-1.5-1.7-2   c-1-0.6-2.1-0.7-3.2-0.4l-3.3,0.9c-1.1,0.3-2,1-2.6,1.9c-0.5,0.8-0.6,1.7-0.5,2.6c0,0.1,0,0.3,0,0.4l1.7,6.5c0,0,0,0,0,0   c0,0,0,0,0,0l0.3,1.2c-0.2-0.1-0.4-0.2-0.7-0.2H51.1c0.2-0.1,0.4-0.3,0.5-0.5c0.5-0.4,0.9-0.9,1.3-1.5c1.7-2.2,3.2-5.2,4.1-8.4   c1.2-4.3,2.3-10.6-1.4-15c-1.9-2.3-4.7-3.5-8.2-3.5c-1.1,0-2.1,0.1-3.1,0.4c0.4-1.3,1.2-2.9,2.6-3.7c0.7-0.4,1-1.3,0.5-2.1   c-0.4-0.7-1.3-1-2.1-0.5c-0.5,0.3-1,0.6-1.4,1c-0.7-1-1.7-2.1-3.1-2.8c-2.3-1.1-5-1-8.2,0.4c-0.7,0.3-1.1,1.1-0.8,1.8   c0,0.2,1.2,3.7,4.6,5.3c0.2,0.1,0.5,0.2,0.7,0.3c-3.5,0-6.4,1.2-8.2,3.5c-2.6,3.2-2.5,8.2-2,11.9c0.6,4,2.1,7.8,4.3,11   c0.7,1,1.5,1.8,2.3,2.5h-7.5c-3.2,0-5.8,2.6-5.8,5.8v4.8c0,1.1,0.3,2.1,0.9,3H18c-3.2,0-5.8,2.6-5.8,5.8v4.8c0,2.7,1.9,5,4.4,5.6   c-0.8,1-1.3,2.3-1.3,3.7V86c0,1.1,0.3,2,0.8,2.9h-4.8c-0.8,0-1.5,0.7-1.5,1.5s0.7,1.5,1.5,1.5h79.6c0.8,0,1.5-0.7,1.5-1.5   S91.6,88.9,90.8,88.9z M40.3,19c0.3,0,0.6-0.1,1-0.1c0,0.1-0.1,0.2-0.1,0.3C40.9,19.1,40.6,19.1,40.3,19z M35.5,13.5   c1.6-0.5,3-0.5,4.2,0.1c1.1,0.5,1.8,1.4,2.2,2.1c-1.5,0.5-2.9,0.5-4,0C36.7,15.2,35.9,14.3,35.5,13.5z M30,33.5   c-0.4-2.5-0.7-7,1.3-9.5c1.3-1.6,3.3-2.4,5.9-2.4c1.6,0,3.1,0.3,4.4,1c0,0,0.1,0,0.1,0c0.1,0,0.1,0.1,0.2,0.1c0.1,0,0.1,0,0.2,0   c0,0,0.1,0,0.1,0c0,0,0.1,0,0.1,0c0.2,0,0.4,0,0.5-0.1c0,0,0.1,0,0.1,0c0,0,0.1,0,0.1,0c1.3-0.7,2.8-1,4.4-1c1.8,0,4.3,0.4,5.9,2.4   c2.8,3.4,1.8,8.7,0.8,12.3c-0.8,2.8-2.1,5.5-3.5,7.3c-0.3,0.4-0.7,0.8-1,1.2c-1,0.9-2.3,1.4-3.6,1.4c-1,0-2-0.2-2.8-0.7   c-0.2-0.1-0.5-0.2-0.7-0.2s-0.5,0.1-0.7,0.2c-0.8,0.5-1.8,0.7-2.8,0.7c-2.5,0-4.1-1.6-5-3C31.9,40.4,30.6,37.1,30,33.5z M83.5,79.5   l-8.8-33.4l1.3-0.4l8.8,33.4L83.5,79.5z M75,42.1l0.2,0.7l-5.6,1.5l-0.2-0.7L75,42.1z M71.8,46.9l8.8,33.4l-1.3,0.4l-8.8-33.4   L71.8,46.9z M84.7,82.2l-0.8,3.6l-2.8-2.6L84.7,82.2z M68.5,38.5c0.2-0.3,0.4-0.5,0.7-0.6l3.3-0.9c0.1,0,0.2,0,0.3,0   c0.2,0,0.4,0.1,0.6,0.2c0.3,0.2,0.5,0.4,0.6,0.7l0.3,1.2l-5.6,1.5l-0.3-1.2C68.3,39.1,68.3,38.8,68.5,38.5z M31.8,54.9l-0.4-0.3   c-0.5-0.4-1.3-0.5-1.8-0.1l-1,0.7v-4.7h3.1V54.9z M23.3,53.3c0-1.4,1.1-2.6,2.4-2.8v7.6c0,0.6,0.3,1.1,0.8,1.3   c0.2,0.1,0.5,0.2,0.7,0.2c0.3,0,0.6-0.1,0.9-0.3l2.4-1.7l1.9,1.6c0.4,0.4,1.1,0.4,1.6,0.2c0.5-0.2,0.9-0.8,0.9-1.4v-3h12.7   c0.8,0,1.5-0.7,1.5-1.5S48.4,52,47.6,52H34.8v-1.6h28.5c-0.9,1.5-1.4,3.1-1.4,4.9v0.7c0,1.7,0.5,3.4,1.4,4.9H26.1   c-1.6,0-2.8-1.3-2.8-2.8V53.3z M58.3,88.8H21c-1.6,0-2.8-1.3-2.8-2.8v-4.8c0-1.4,1.1-2.6,2.4-2.8v7.6c0,0.6,0.3,1.1,0.8,1.3   c0.2,0.1,0.5,0.2,0.7,0.2c0.3,0,0.6-0.1,0.9-0.3l2.4-1.7l1.9,1.6c0.4,0.4,1.1,0.4,1.6,0.2c0.5-0.2,0.9-0.8,0.9-1.4v-7.5h28.5   c-0.9,1.5-1.4,3.1-1.4,4.9v0.7C56.9,85.6,57.4,87.3,58.3,88.8z M23.6,78.3h3.1v4.4l-0.4-0.3c-0.5-0.4-1.3-0.5-1.8-0.1l-1,0.7V78.3z    M20.6,64.1h3.1v4.4l-0.4-0.3c-0.5-0.4-1.3-0.5-1.8-0.1l-0.9,0.7V64.1z M15.2,71.8V67c0-1.4,1.1-2.6,2.4-2.8v7.6   c0,0.6,0.3,1.1,0.8,1.3c0.2,0.1,0.5,0.2,0.7,0.2c0.3,0,0.6-0.1,0.9-0.3l2.4-1.7l1.9,1.6c0.4,0.4,1.1,0.4,1.6,0.2   c0.5-0.2,0.9-0.8,0.9-1.4v-7.5h28.5c-0.7,1.1-1.1,2.4-1.3,3.7c0,0-0.1,0-0.1,0H42.9c-0.8,0-1.5,0.7-1.5,1.5s0.7,1.5,1.5,1.5h10.9   c0,0,0.1,0,0.1,0c0.2,1.3,0.6,2.6,1.3,3.7H18C16.4,74.6,15.2,73.3,15.2,71.8z M59.9,83.9v-0.7c0-2,1-4,2.7-5.2   c0.5-0.4,0.8-1.1,0.6-1.7c-0.2-0.6-0.8-1-1.4-1h-1.8c-0.1-0.2-0.2-0.3-0.4-0.4c-1.7-1.2-2.7-3.1-2.7-5.2V69c0-2,1-3.9,2.6-5.1h7.3   c0.7,0,1.2-0.4,1.4-1c0.2-0.6,0-1.3-0.6-1.7C65.9,60,65,58.1,65,56.1v-0.7c0-2,1-4,2.7-5.2c0.2-0.1,0.3-0.3,0.4-0.4l8.7,33   c0,0,0,0,0,0c0,0,0,0,0,0c0,0.1,0.1,0.3,0.2,0.4c0,0,0.1,0.1,0.1,0.1c0,0.1,0.1,0.1,0.1,0.2l5.7,5.4H62.3   C60.8,87.7,59.9,85.8,59.9,83.9z"></path><path d="M33.1,70.9h4.2c0.8,0,1.5-0.7,1.5-1.5s-0.7-1.5-1.5-1.5h-4.2c-0.8,0-1.5,0.7-1.5,1.5S32.3,70.9,33.1,70.9z"></path></g></svg>