<svg height='100px' width='100px'  fill="#000000" xmlns:dc="http://purl.org/dc/elements/1.1/" xmlns:cc="http://creativecommons.org/ns#" xmlns:rdf="http://www.w3.org/1999/02/22-rdf-syntax-ns#" xmlns:svg="http://www.w3.org/2000/svg" xmlns="http://www.w3.org/2000/svg" xmlns:sodipodi="http://sodipodi.sourceforge.net/DTD/sodipodi-0.dtd" xmlns:inkscape="http://www.inkscape.org/namespaces/inkscape" viewBox="0 0 32 32" version="1.1" x="0px" y="0px"><g transform="translate(0,-1020.3622)"><path d="m 25.447377,1029.9563 a 0.49960406,0.50001498 0 0 0 -0.130744,0.016 l -8.683649,2.3279 a 0.49960406,0.50001498 0 0 0 -0.04876,0.014 0.49960406,0.50001498 0 0 0 -0.306366,0.6015 l 1.875276,7.0015 c 0.561838,2.613 3.08118,4.3075 5.688283,3.8825 l 1.559158,5.8199 -0.962031,0.2578 a 0.49960408,0.500015 0 0 0 -0.04876,0.014 0.49960408,0.500015 0 0 0 0.306367,0.9492 l 2.893897,-0.7753 a 0.49960408,0.500015 0 1 0 -0.25758,-0.9629 l -0.96398,0.2578 -1.565013,-5.8511 c 2.356687,-0.999 3.682224,-3.6123 3.001232,-6.1558 l -1.879183,-7.023 a 0.49960406,0.50001498 0 0 0 -0.478093,-0.373 z m -0.357102,1.1073 1.252792,4.6794 -7.805533,1.7596 -1.168877,-4.3669 z" style="color:#000000;font-style:normal;font-variant:normal;font-weight:normal;font-stretch:normal;font-size:medium;line-height:normal;font-family:sans-serif;text-indent:0;text-align:start;text-decoration:none;text-decoration-line:none;text-decoration-style:solid;text-decoration-color:#000000;letter-spacing:normal;word-spacing:normal;text-transform:none;direction:ltr;writing-mode:lr-tb;baseline-shift:baseline;text-anchor:start;white-space:normal;clip-rule:nonzero;display:inline;overflow:visible;visibility:visible;opacity:1;isolation:auto;mix-blend-mode:normal;color-interpolation:sRGB;color-interpolation-filters:linearRGB;solid-color:#000000;solid-opacity:1;fill:#000000;fill-opacity:1;fill-rule:nonzero;stroke:none;stroke-width:3.77952743;stroke-linecap:round;stroke-linejoin:round;stroke-miterlimit:4;stroke-dasharray:none;stroke-dashoffset:0;stroke-opacity:1;color-rendering:auto;image-rendering:auto;shape-rendering:auto;text-rendering:auto;enable-background:accumulate"></path><path style="color:#000000;font-style:normal;font-variant:normal;font-weight:normal;font-stretch:normal;font-size:medium;line-height:normal;font-family:sans-serif;text-indent:0;text-align:start;text-decoration:none;text-decoration-line:none;text-decoration-style:solid;text-decoration-color:#000000;letter-spacing:normal;word-spacing:normal;text-transform:none;direction:ltr;writing-mode:lr-tb;baseline-shift:baseline;text-anchor:start;white-space:normal;clip-rule:nonzero;display:inline;overflow:visible;visibility:visible;opacity:1;isolation:auto;mix-blend-mode:normal;color-interpolation:sRGB;color-interpolation-filters:linearRGB;solid-color:#000000;solid-opacity:1;fill:#000000;fill-opacity:1;fill-rule:nonzero;stroke:none;stroke-width:3.77952743;stroke-linecap:round;stroke-linejoin:round;stroke-miterlimit:4;stroke-dasharray:none;stroke-dashoffset:0;stroke-opacity:1;color-rendering:auto;image-rendering:auto;shape-rendering:auto;text-rendering:auto;enable-background:accumulate" d="m 6.5345827,1029.9524 a 0.49960406,0.50001499 0 0 0 -0.4663837,0.375 l -1.8791828,7.0288 c -0.681162,2.5442 0.6468427,5.1543 3.0051279,6.1519 l -1.5650032,5.8511 -0.9678862,-0.2597 a 0.49960406,0.50001499 0 0 0 -0.1483076,-0.023 0.49960406,0.50001499 0 0 0 -0.1112307,0.9902 l 2.8997519,0.7753 a 0.50002876,0.50044004 0 1 0 0.2575901,-0.9667 l -0.9678862,-0.2598 1.5591484,-5.8179 c 2.6068134,0.424 5.1304914,-1.2683 5.6921894,-3.8806 l 1.873328,-7.0054 a 0.49960406,0.50001499 0 0 0 -0.353205,-0.6113 l -8.6817009,-2.326 a 0.49960406,0.50001499 0 0 0 -0.1463494,-0.022 z m 0.3668526,1.1132 7.7235767,2.0741 -1.16497,4.3376 -7.6904065,-2.1659 z"></path><path style="opacity:1;fill:#000000;fill-opacity:1;stroke:none;stroke-width:0.26458332;stroke-linecap:butt;stroke-linejoin:miter;stroke-miterlimit:4;stroke-dasharray:none;stroke-dashoffset:0;stroke-opacity:1" d="m 20.993071,1021.8623 c 0.8277,-7e-4 1.498058,0.6361 1.497258,1.4223 -6.12e-4,0.4074 -0.216714,0.7648 -0.507123,1.0651 -0.841997,0.8765 -2.488798,2.5122 -2.488798,2.5122 0,0 -1.770232,-1.6859 -2.617904,-2.626 -0.239295,-0.2649 -0.380455,-0.5971 -0.380821,-0.9462 6.72e-4,-0.7862 0.672227,-1.4241 1.499802,-1.4249 0.82767,-8e-4 1.497998,0.636 1.497232,1.4223 6.72e-4,-0.7862 0.672227,-1.4241 1.499772,-1.4249 z"></path><path d="m 13.99831,1025.362 c 0.551776,-5e-4 0.998669,0.4049 0.998166,0.9053 -4.15e-4,0.2593 -0.144702,0.4867 -0.338079,0.678 -0.561322,0.5579 -1.663624,1.7026 -1.663624,1.7026 0,0 -1.175672,-1.1767 -1.740797,-1.775 -0.15958,-0.169 -0.253644,-0.3801 -0.253947,-0.6023 4.54e-4,-0.5004 0.448151,-0.9065 0.999859,-0.907 0.551746,-4e-4 0.99865,0.4048 0.998136,0.9053 4.54e-4,-0.5004 0.448147,-0.9064 0.999833,-0.9069 z" style="opacity:1;fill:#000000;fill-opacity:1;stroke:none;stroke-width:0.26458332;stroke-linecap:butt;stroke-linejoin:miter;stroke-miterlimit:4;stroke-dasharray:none;stroke-dashoffset:0;stroke-opacity:1"></path></g></svg>