<svg height='100px' width='100px'  fill="#000000" xmlns="http://www.w3.org/2000/svg" xmlns:xlink="http://www.w3.org/1999/xlink" version="1.1" x="0px" y="0px" viewBox="0 0 160 160" style="enable-background:new 0 0 160 160;" xml:space="preserve"><path d="M151.495,77.477H48.623c-1.933,0-3.5,1.567-3.5,3.5c0,18.626,9.271,35.112,23.418,45.09  c-0.003,0.001-0.006,0.002-0.009,0.003c-1.04,0.31-2.09,0.58-3.14,0.8c-9.66,2.17-19.6,1.45-28.42-2.46  c-4.21-1.86-9.26-0.89-12.56,2.41l-0.15,0.15c-1.35,1.36-3.16,2.11-5.08,2.11c-1.91,0-3.72-0.75-5.08-2.11  c-2.81-2.82-2.81-7.41,0.01-10.24l0.13-0.13c3.3-3.31,4.26-8.36,2.41-12.58c-7.87-17.88-2.77-40.31,12.7-55.83  c10.62-10.66,24.5-16.41,37.92-16.41c6.11,0,12.13,1.19,17.71,3.66c4.22,1.87,9.27,0.9,12.57-2.41c1.35-1.36,3.16-2.11,5.08-2.11  c1.92,0,3.72,0.75,5.08,2.11c2.81,2.82,2.81,7.41,0,10.23c-3.3,3.3-4.26,8.36-2.41,12.58c2.47,5.6,3.66,11.64,3.66,17.79  c0,0.45-0.01,0.9-0.02,1.35h6.99c0.19-7.56-1.18-15.05-4.22-21.96c-0.7-1.61-0.32-3.54,0.96-4.82c5.52-5.55,5.52-14.57,0-20.11  c-1.34-1.34-2.9-2.39-4.6-3.09c-1.71-0.71-3.55-1.08-5.44-1.08c-3.8,0-7.36,1.48-10.04,4.17c-1.27,1.27-3.19,1.66-4.78,0.95  c-20.44-9.05-45.92-3.35-63.42,14.2c-17.49,17.55-23.17,43.11-14.15,63.6c0.7,1.6,0.32,3.54-0.96,4.82l-0.13,0.14  c-5.53,5.54-5.53,14.56,0,20.11c2.68,2.69,6.24,4.17,10.03,4.17c3.8,0,7.36-1.48,10.04-4.17l0.14-0.14  c1.27-1.27,3.19-1.66,4.78-0.96c6.47,2.87,13.45,4.26,20.52,4.26c6.22,0,12.51-1.07,18.59-3.16c1.06-0.37,2.12-0.76,3.17-1.19  c0.004-0.002,0.008-0.004,0.013-0.005c7.16,3.436,15.172,5.364,23.624,5.364c30.292,0,54.937-24.719,54.937-55.102  C154.995,79.044,153.428,77.477,151.495,77.477z M135.882,84.477c-0.74,7.685-3.894,14.667-8.684,20.186l-20.121-20.186H135.882z   M123.67,108.205c-5.736,5.015-13.062,8.236-21.111,8.794V87.026L123.67,108.205z M97.559,116.998  c-8.049-0.557-15.374-3.779-21.11-8.794l21.11-21.179V116.998z M93.041,84.477L72.92,104.663c-4.79-5.519-7.943-12.501-8.683-20.186  H93.041z M100.059,129.079c-25.259,0-46.018-19.706-47.81-44.602h6.974c0.833,9.852,5.135,18.724,11.684,25.375  c0.055,0.068,0.103,0.14,0.167,0.203c0.059,0.059,0.127,0.103,0.19,0.155c7.409,7.342,17.581,11.885,28.794,11.885  c11.214,0,21.388-4.544,28.797-11.887c0.062-0.051,0.129-0.094,0.187-0.153c0.062-0.062,0.109-0.133,0.164-0.199  c6.551-6.651,10.856-15.525,11.688-25.379h6.974C146.078,109.373,125.319,129.079,100.059,129.079z"></path></svg>