<svg height='100px' width='100px'  fill="#000000" xmlns:x="http://ns.adobe.com/Extensibility/1.0/" xmlns:i="http://ns.adobe.com/AdobeIllustrator/10.0/" xmlns:graph="http://ns.adobe.com/Graphs/1.0/" xmlns="http://www.w3.org/2000/svg" xmlns:xlink="http://www.w3.org/1999/xlink" version="1.1" x="0px" y="0px" viewBox="0 0 100 100" style="enable-background:new 0 0 100 100;" xml:space="preserve"><g><g i:extraneous="self"><g><path d="M29.6,28.8h33.1c0.9,0,1.7-0.8,1.7-1.7s-0.8-1.7-1.7-1.7H29.6c-0.9,0-1.7,0.8-1.7,1.7S28.6,28.8,29.6,28.8z"></path><path d="M29.6,44.1h33.1c0.9,0,1.7-0.8,1.7-1.7c0-0.9-0.8-1.7-1.7-1.7H29.6c-0.9,0-1.7,0.8-1.7,1.7     C27.9,43.3,28.6,44.1,29.6,44.1z"></path><path d="M29.6,59.4h28.6c0.9,0,1.7-0.8,1.7-1.7S59.1,56,58.1,56H29.6c-0.9,0-1.7,0.8-1.7,1.7S28.6,59.4,29.6,59.4z"></path><path d="M45.7,71.2H29.6c-0.9,0-1.7,0.8-1.7,1.7c0,0.9,0.8,1.7,1.7,1.7h16.1c0.9,0,1.7-0.8,1.7-1.7C47.4,72,46.6,71.2,45.7,71.2z     "></path><path d="M96.4,44.4l-4.5-4.5c-1.4-1.4-3.8-1.4-5.2,0L76.1,50.4V10.6c0-1-0.7-1.7-1.7-1.7H4.2c-1,0-1.7,0.7-1.7,1.7v78.8     c0,0.9,0.7,1.7,1.7,1.7h70.2c1,0,1.7-0.8,1.7-1.7V69.9l20.3-20.3C97.9,48.2,97.9,45.8,96.4,44.4z M59.4,71.9L59.4,71.9l5,4.9l0,0     c0,0-0.1,0.1-0.1,0.1l-6.7,1.7L59.4,71.9z M66.8,74.5l-4.9-4.9L84,47.3l4.9,4.9L66.8,74.5z M72.7,87.7H5.9V12.3h66.8v41.5     L57,69.5c-0.5,0.5-0.8,1-1,1.6l-1.8,6.6c-0.3,1.2,0,2.5,0.9,3.4c0.7,0.7,1.5,1,2.4,1c0.3,0,0.6,0,0.9-0.1l6.6-1.8     c0.6-0.2,1.2-0.5,1.6-1l6-6V87.7z M94,47.2l-2.7,2.7l-4.9-4.9l2.7-2.7c0.1-0.1,0.1-0.1,0.2-0.1c0.1,0,0.2,0,0.2,0.1l4.5,4.5     C94.1,46.9,94.1,47.1,94,47.2z"></path><path d="M17.8,21.5c-3,0-5.5,2.5-5.5,5.5s2.5,5.5,5.5,5.5s5.5-2.5,5.5-5.5S20.9,21.5,17.8,21.5z M17.8,29.2c-1.2,0-2.1-1-2.1-2.1     s1-2.1,2.1-2.1s2.1,1,2.1,2.1S19,29.2,17.8,29.2z"></path><path d="M17.8,36.8c-3,0-5.5,2.5-5.5,5.5c0,3,2.5,5.5,5.5,5.5s5.5-2.5,5.5-5.5C23.4,39.3,20.9,36.8,17.8,36.8z M17.8,44.5     c-1.2,0-2.1-1-2.1-2.1s1-2.1,2.1-2.1s2.1,1,2.1,2.1S19,44.5,17.8,44.5z"></path><path d="M17.8,52.1c-3,0-5.5,2.5-5.5,5.5s2.5,5.5,5.5,5.5s5.5-2.5,5.5-5.5S20.9,52.1,17.8,52.1z M17.8,59.8c-1.2,0-2.1-1-2.1-2.1     s1-2.1,2.1-2.1s2.1,1,2.1,2.1S19,59.8,17.8,59.8z"></path><path d="M17.8,67.4c-3,0-5.5,2.5-5.5,5.5c0,3,2.5,5.5,5.5,5.5s5.5-2.5,5.5-5.5C23.4,69.9,20.9,67.4,17.8,67.4z M17.8,75.1     c-1.2,0-2.1-1-2.1-2.1c0-1.2,1-2.1,2.1-2.1s2.1,1,2.1,2.1C20,74.1,19,75.1,17.8,75.1z"></path></g></g></g></svg>