<svg height='100px' width='100px'  fill="#000000" xmlns="http://www.w3.org/2000/svg" data-name="Слой 1" viewBox="0 0 100 100" x="0px" y="0px"><title>Безымянный-4</title><path d="M77.71383,39.73061c1.31428,2.77947,1.09691,5.53332,1.17246,8.237.09765,3.4935-.047,6.99915.181,10.482a69.31429,69.31429,0,0,0,1.21516,8.86376,44.70446,44.70446,0,0,1,.4027,7.19412,7.49946,7.49946,0,0,0,.97485,3.60622,22.26012,22.26012,0,0,1,2.12739,4.64552,8.18118,8.18118,0,0,1,.24663,3.01,2.41261,2.41261,0,0,1-2.72593,2.4116,1.96567,1.96567,0,0,0-.74094.05015c-2.03547.86132-4.14249.4409-6.2166.32355a31.22223,31.22223,0,0,0-10.396.69036,37.378,37.378,0,0,1-18.65025.52578,15.36284,15.36284,0,0,0-4.55592-.23157,80.43806,80.43806,0,0,0-8.31567.74276,34.62119,34.62119,0,0,1-8.91688.12549,23.20726,23.20726,0,0,1-4.32411-.59236,4.11718,4.11718,0,0,1-2.60841-6.288,11.899,11.899,0,0,0,1.40682-4.28192A59.27993,59.27993,0,0,0,18.57831,67.288c-.191-5.801-.04681-11.58043,2.31829-17.04511.65506-1.51357,1.28907-3.03642,1.95861-4.54352a6.93227,6.93227,0,0,0,.609-4.61919c-.10732-.42711-.15049-.95133-.7129-1.0045-2.98225-.282-3.40348-2.62135-3.58878-4.82356-.27123-3.22318-.1988-6.47544-.2644-9.71547-.00505-.25084.07082-.50224.08476-.75472.10628-1.92615.99947-2.22531,2.81743-2.0859.50675.03885,1.01617.07124,1.51724.15117a2.888,2.888,0,0,0,3.05392-1.35487,27.72321,27.72321,0,0,1,5.62058-5.64975,38.20825,38.20825,0,0,1,8.37979-4.829,9.67793,9.67793,0,0,1,4.48248-.689,10.06521,10.06521,0,0,0,4.30675-.56173,7.137,7.137,0,0,1,5.7379.28426,7.70971,7.70971,0,0,0,4.4105.8597,5.1163,5.1163,0,0,1,3.44254.86453,12.85258,12.85258,0,0,0,3.40919,1.68434c1.45018.41859,2.21488,1.6747,3.20966,2.60909a14.64624,14.64624,0,0,1,3.84966,5.14874,1.60389,1.60389,0,0,0,1.89433,1.09176c1.71007-.11173,3.41686-.10686,4.891,1.08313a5.248,5.248,0,0,1,1.802,2.60316,20.68916,20.68916,0,0,1,.73759,5.25954c.0925,1.77617.21262,3.55162.26351,5.329.047,1.64331-.60852,2.40916-2.261,2.72021C79.68,39.46373,78.80087,39.56785,77.71383,39.73061Zm-2.74875,1.0342a3.30569,3.30569,0,0,0-2.699-.91465,78.60608,78.60608,0,0,1-9.092-.96052A56.23408,56.23408,0,0,0,47.4128,38.3802a6.86856,6.86856,0,0,0-2.917.80329c-.37314.22979-.83612.56924-1.234.32018-.926-.57968-1.71782-.07518-2.54387.17225-.41419.12407-.77479.46326-1.25512.23948-.958-.44633-1.64965.16569-2.4695.50953-.86587.36313-1.69733,1.96026-2.86589.36813-.046-.06265-.46251.101-.67541.21641-.38934.211-.7477.47855-1.13346.697-.40778.231-1.08974.37357-1.18921-.03056-.30288-1.23078-.9-.51339-1.36533-.285-.84442.41441-1.54082.89809-2.634.38177-.88893-.41986-1.59588.20568-1.86447,1.359a43.3988,43.3988,0,0,1-2.91409,8.03777,21.0013,21.0013,0,0,0-2.17029,8.42466c-.03382,2.79576.007,5.5925.02177,8.38876.0111,2.09681.00147,4.18861-.12058,6.28728a51.804,51.804,0,0,1-1.98448,11.21472c-.50729,1.7823.10654,2.52007,1.979,2.868,1.55179.28838,3.11669.42067,4.67876.60059a38.24039,38.24039,0,0,0,8.17352-.08409c2.65431-.2601,5.27159-.79276,7.95658-.85773,2.95834-.07154,5.79019.72286,8.69181.98331,3.79483.34065,7.56563.6198,11.32629-.62583a27.5475,27.5475,0,0,1,9.96341-1.398c2.72812.12716,5.45567-.00527,8.18575.06574,2.98067.07753,4.158-2.04205,2.79241-4.614a2.81074,2.81074,0,0,0-.31528-.477c-2.2909-2.75676-2.60814-6.12453-2.87041-9.48261-.236-3.02106.27393-6.09029-.80964-9.05953-.47977-1.31462-.33074-1.37158-1.69747-1.29234-.44447.02576-.8884.06376-1.33185.104-1.64527.14941-3.28975.30746-4.9357.44888-.3181.02734-.68744.00394-.78209-.37086-.09681-.38336.23351-.539.52777-.66055A4.84362,4.84362,0,0,1,71.316,61.365c1.58732-.0659,3.17452-.09755,4.7559-.31224,1.171-.15894,1.41249.13056,1.40533-1.64391C77.47054,57.7576,77.467,56.106,77.427,54.4554c-.08749-3.61528.12138-7.245-.59651-10.8294-.36817-1.83825-.32957-1.8646-2.184-1.79453a53.77129,53.77129,0,0,1-10.1119-.61913C67.887,40.59235,71.31093,41.52077,74.96508,40.76481ZM27.10624,38.3081c1.46114.08381,2.91487.18056,4.37971.12561,4.69555-.17609,9.24928-1.43138,13.92846-1.75066a82.5893,82.5893,0,0,1,10.27317-.09236c2.79865.15706,5.53735.70633,8.30547,1.0454,3.65075.44722,7.33439.63816,11.00775.88112a9.215,9.215,0,0,0,3.55456-.52688,2.85758,2.85758,0,0,0,2.22178-3.44262c-.17555-1.44727-.48186-2.87962-.63171-4.32876a17.41806,17.41806,0,0,0-.95608-3.86685,4.07055,4.07055,0,0,0-2.56011-2.57952,5.44107,5.44107,0,0,0-2.82134-.06193c-3.82225.57781-7.6916.93439-11.37694,2.214a6.71379,6.71379,0,0,1-1.68912.24334,60.28464,60.28464,0,0,1-7.58683.45606c-2.53253-.10752-5.06822.11306-7.59733-.173-2.07928-.23519-4.16476-.47928-6.25338-.55382a96.57031,96.57031,0,0,1-11.136-1.13377,45.83713,45.83713,0,0,0-6.27231-.2979,1.28293,1.28293,0,0,0-1.40475,1.436A76.24266,76.24266,0,0,0,20.98,35.18446a13.08277,13.08277,0,0,0,.58422,2.1968,1.48556,1.48556,0,0,0,1.7377,1.12456C24.56876,38.42075,25.838,38.37222,27.10624,38.3081ZM72.08586,22.2899a11.6221,11.6221,0,0,0-2.01106-3.49511,22.00007,22.00007,0,0,0-3.71964-3.50166,29.885,29.885,0,0,0-6.06777-3.02167,1.19035,1.19035,0,0,0-.74932-.08605c-2.08725.67075-3.88015-.30084-5.648-1.09826a4.748,4.748,0,0,0-3.29959-.333,19.6567,19.6567,0,0,1-5.96127.93726,11.52758,11.52758,0,0,0-6.49738,1.87911c-1.48044.86107-2.8975,1.84117-4.42053,2.61527a8.17171,8.17171,0,0,0-2.53741,1.96389c-.62371.72382-1.32717,1.36062-1.978,2.0497a6.05162,6.05162,0,0,0-2.006,2.90284,10.08389,10.08389,0,0,0,2.53729.43416c3.60909.1508,7.15528.88216,10.78463.99965,4.11427.13321,8.22576.74042,12.34568.56721,1.82864-.07686,3.65991.02037,5.50209-.17145,2.73474-.28478,5.36225-1.0271,8.046-1.50777A34.00224,34.00224,0,0,0,72.08586,22.2899Z"></path><path d="M59.26687,85.54485c6.80248-1.26113,13.4152-1.03632,20.26257-1.90083A2.74747,2.74747,0,0,1,76.88,84.9696c-2.53091.16642-5.06506.28367-7.59594.45072-2.783.18365-5.56363.40312-8.34567.60185A1.77444,1.77444,0,0,1,59.26687,85.54485Z"></path><path d="M66.39358,82.09633c3.104-.286,6.51969-.49739,9.91518-.9518.47461-.06352,1.28929-.61075,1.45438.20332.18308.9027-.77092.56474-1.231.67108a50.21116,50.21116,0,0,1-11.53333,1.01016,10.42963,10.42963,0,0,1-1.13926-.07475c-.36184-.041-.89741.00547-.88184-.48732.01879-.5949.58189-.56436,1.024-.54308C64.69754,81.95744,65.39188,82.0221,66.39358,82.09633Z"></path><path d="M67.88237,80.41021c-1.07649,0-2.153.00408-3.22943-.003-.25232-.00168-.525-.034-.56632-.358a.55317.55317,0,0,1,.513-.65579,8.29453,8.29453,0,0,1,1.513-.05249,66.42181,66.42181,0,0,0,10.57863-.70852,5.01266,5.01266,0,0,1,.75318-.04578c.10019.00513.27393.12226.27591.19234a.86877.86877,0,0,1-.12168.51669c-.34589.4609-.9107.43461-1.3917.47885A66.61661,66.61661,0,0,1,67.88237,80.41021Z"></path><path d="M19.8645,87.09988c.451-.29954,12.4161-.01727,12.91088.11772-.0994.6715-.67008.72295-1.128.75866A30.4272,30.4272,0,0,1,19.8645,87.09988Z"></path><path d="M76.95545,76.29139c-.20278.49323-.7601.565-1.31833.6177-3.09464.29192-6.18918.58529-9.28543.85915-.389.03442-.9793.28211-1.00158-.43889a.68639.68639,0,0,1,.74782-.7032c3.50771.175,6.92136-.84871,10.41694-.79612C76.68679,75.83261,76.896,75.86339,76.95545,76.29139Z"></path><path d="M25.03965,85.68716a45.566,45.566,0,0,1-4.91992-.23814c-.39372-.00024-1.06977.09147-1.05287-.49366.01921-.66595.69621-.59938,1.18679-.58094,1.07215.04028,2.14313.114,3.21423.17989a27.09222,27.09222,0,0,0,4.73517.06127c.33449-.03793.84662-.212.86237.37414.01229.45559-.45093.56718-.81024.64821A16.29938,16.29938,0,0,1,25.03965,85.68716Z"></path><path d="M76.8237,72.93694a2.54728,2.54728,0,0,1-2.46,1.616c-3.55557.46915-6.13123.28526-7.46924-.53334C70.13829,73.388,73.38781,73.8664,76.8237,72.93694Z"></path><path d="M69.45055,72.4644c-.6349.03594-1.26945.08635-1.90484.10186-.32792.008-.6778-.08462-.66675-.49024.01014-.37355.34794-.52185.66957-.54524.75915-.05523,1.52226-.05366,2.28227-.09961a54.93249,54.93249,0,0,0,6.43413-.71581c.30626-.05514.66285-.16721.72915.30155.055.38894-.2274.56467-.552.64706-1.85589.47094-3.77924.433-5.65876.73454a8.5108,8.5108,0,0,1-1.33254.01028Z"></path><path d="M69.43908,70.19612c-.62581-.21744-1.58644.40591-1.66052-.47122-.066-.781.87841-.69844,1.4848-.68817a41.65927,41.65927,0,0,0,5.62739-.61545c.4378-.052.876-.10563,1.3156-.1361.25589-.01775.53045.02955.58816.33162a.55653.55653,0,0,1-.50459.6615c-.55268.1194-1.116.19428-1.6776.26669C72.86327,69.77053,71.11293,69.98617,69.43908,70.19612Z"></path><path d="M67.8915,64.659A1.87641,1.87641,0,0,1,69.644,63.5795c2.02116-.15915,4.044-.29891,6.06708-.431.29229-.01909.68007-.0928.74884.34688.06271.40106-.29076.50693-.568.6429a6.59943,6.59943,0,0,1-2.23906.37779A33.42949,33.42949,0,0,1,67.8915,64.659Z"></path><path d="M24.23553,82.31335c1.00793,0,2.0159-.00415,3.02378.00308.23656.00168.53762-.04718.61058.27253.09187.40251-.20963.60049-.52051.63254-1.31521.13563-2.63336.26088-3.95358.32342-.87913.04164-1.764-.01921-2.64546-.05427-.36225-.01443-.84656.0114-.76374-.54762a.70633.70633,0,0,1,.84575-.57049c.31428.02375.62954.04534.94452.04788.81936.0066,1.63886.00219,2.45829.00219Z"></path><path d="M74.61931,57.85852c.39571.12581,1.369-.37428,1.44324.39949.07142.74452-.92149.6186-1.49732.71354q-2.60946.43015-5.23119.78335c-.37305.04975-.95916.31822-1.04257-.36746-.05606-.46056.38685-.61216.76389-.66762C70.8611,58.45423,72.60412,57.80491,74.61931,57.85852Z"></path><path d="M76.766,65.89644c-.14423.718-.48557.73276-.78614.751q-3.58986.218-7.14214.77444a2.08443,2.08443,0,0,1-.37692.0279c-.3-.0079-.69318.06982-.78293-.30764a.63217.63217,0,0,1,.59171-.80291C71.07531,66.25223,73.856,65.44734,76.766,65.89644Z"></path><path d="M69.4091,56.9923c-.35249.05907-.61958-.04694-.69821-.43056a.51984.51984,0,0,1,.48053-.67362q2.82062-.36591,5.64816-.677c.22653-.025.5228.01479.55238.36475a.624.624,0,0,1-.3586.61221,2.1141,2.1141,0,0,1-.72311.21164C72.67759,56.60566,71.043,56.79652,69.4091,56.9923Z"></path><path d="M75.83121,43.8982c-1.7302,1.14087-6.349.99338-9.1033,0Z"></path><path d="M72.74629,51.3482c.82587,0,1.652-.0103,2.47743.0084.17141.00387.38048.06691.38372.32376a.42826.42826,0,0,1-.26786.44414,2.65319,2.65319,0,0,1-.71775.24328,24.77749,24.77749,0,0,1-4.55741-.222.40287.40287,0,0,1-.39314-.52072.54548.54548,0,0,1,.41846-.27946c.88491-.026,1.771-.01289,2.65667-.01289Z"></path><path d="M76.13432,49.35216c-1.77171,1.4476-3.68445.76373-5.58.4193C72.34065,48.8402,74.27319,49.49857,76.13432,49.35216Z"></path><path d="M23.32468,80.17412c.50212-.03455,1.00391-.07453,1.50645-.10168.30719-.01663.67376-.06374.68483.38812a.64264.64264,0,0,1-.57963.638,15.66771,15.66771,0,0,1-3.77431.05382c-.26288-.00737-.51227-.12656-.49723-.43256a.60942.60942,0,0,1,.58324-.62509c.69024-.03289,1.38314-.00972,2.07494-.00972Z"></path><path d="M22.94109,76.28732c-.43624.05626-.87123.12933-1.30922.16225-.249.01871-.5082-.0244-.56112-.35a.54549.54549,0,0,1,.3248-.61674,10.646,10.646,0,0,1,4.088-.27155c.07267.00188.17626.16184.20458.26491a.516.516,0,0,1-.31826.61244A7.84006,7.84006,0,0,1,22.94109,76.28732Z"></path><path d="M21.02532,78.88119c.2146-.95362.73052-1.02457,1.22446-1.05243.99809-.05633,1.99867-.074,2.99848-.091.23208-.00394.5176-.02708.596.29187.09744.39625-.18744.56708-.47692.68485a2.056,2.056,0,0,1-.72754.15952C23.46869,78.89,22.29724,78.88119,21.02532,78.88119Z"></path><path d="M69.78175,54.408c1.6556-.95429,3.41167-.69617,5.13084-.73889a.31636.31636,0,0,1,.33922.35785c-.0296.1708-.08555.4098-.20754.47684a1.73436,1.73436,0,0,1-.86957.27437C72.7085,54.68366,71.24573,54.53668,69.78175,54.408Z"></path><path d="M25.63746,73.22976c-1.3406.52963-2.73791.21526-4.06913.57021-.42254.11268-.43081-.38748-.27575-.66744a1.54383,1.54383,0,0,1,1.30309-.64444A4.75648,4.75648,0,0,1,25.63746,73.22976Z"></path><path d="M76.10544,47.15821a15.6257,15.6257,0,0,1-5.78248.16546A9.21611,9.21611,0,0,1,76.10544,47.15821Z"></path><path d="M23.17378,69.09558c.44147.04478.93618-.11469.96534.42488.0158.29216-.27768.53079-.61653.6029-.5463.11628-1.08945.2483-1.63765.35429-.2475.04784-.50858.02058-.5977-.26973a.59334.59334,0,0,1,.22736-.66132A2.23711,2.23711,0,0,1,23.17378,69.09558Z"></path><path d="M65.68826,33.27328c.28451-.33867.72588-.3012,1.13247-.30986a66.83124,66.83124,0,0,0,10.18955-.62522,2.7167,2.7167,0,0,1,.56828-.005c.38666.015.8699.04617.87127.51176.00129.42821-.45715.519-.84845.553a91.7158,91.7158,0,0,1-11.16808.39455C66.14667,33.78238,65.78171,33.80535,65.68826,33.27328Z"></path><path d="M79.51459,35.28143a23.8012,23.8012,0,0,1-7.01768.55251,17.98567,17.98567,0,0,1-3.97326-.04527c-.29954-.07544-.64753-.13088-.53324-.58787.08036-.32113.38188-.35393.60332-.33443A84.68543,84.68543,0,0,0,78.8499,34.7492C78.98631,34.74469,79.13017,34.965,79.51459,35.28143Z"></path><path d="M69.37166,29.39125c3.08492-.78834,5.94559-.59021,8.76-.86333.35148-.03411.85871-.14085.92048.36952.06625.54718-.401.782-.86356.75026-1.58037-.10837-3.14834.10444-4.71883.10848-.69267.00177-1.37536.07578-2.06306.08209A2.50681,2.50681,0,0,1,69.37166,29.39125Z"></path><path d="M68.58888,31.04658a2.39832,2.39832,0,0,1,1.69462-.41617,61.27474,61.27474,0,0,0,7.60967-.26124c.32276-.03758.66466.00125.67739.43673a.61134.61134,0,0,1-.5559.65606,14.70338,14.70338,0,0,1-1.89579.12774c-2.028-.01369-4.056-.0538-6.08377-.09482A2.47687,2.47687,0,0,1,68.58888,31.04658Z"></path><path d="M78.60895,27.348c-2.10508.7677-4.0865.32663-6.35632.44248C74.10332,26.83381,77.1477,26.63418,78.60895,27.348Z"></path><path d="M48.4952,12.90393c.08031-.425.29785-.68409.77069-.60512a8.78549,8.78549,0,0,1,2.42764.96306.54549.54549,0,0,1,.01359.94863c-.64609.51229-2.86771-.16777-3.1532-.937A1.8746,1.8746,0,0,1,48.4952,12.90393Z"></path><path d="M47.019,13.70626a3.71928,3.71928,0,0,1-.4114.55218c-.40069.381-.84306.65235-.65686,1.39124.1288.51094-.405.75252-.88055.65733-.50207-.10047-.79654-.46618-.45-.95974a3.08119,3.08119,0,0,0,.38384-1.41781c.13215-.81321.82908-.84954,1.43738-.912C46.80617,12.98,46.95446,13.298,47.019,13.70626Z"></path><path d="M42.0747,17.767a.78788.78788,0,0,1-.88067-.8085c-.08839-.78323.47944-.93245,1.06835-.99881.45722-.05153,1.00781.03775.99555.56561A1.33765,1.33765,0,0,1,42.0747,17.767Z"></path><path d="M43.03733,22.641c-.04035-.01512-.1915-.02515-.26-.10558-.296-.34762-.59828-.94094-.06036-1.06963.806-.19281-.00123-1.922,1.39048-1.31379a.58149.58149,0,0,1,.15693.09364.435.435,0,0,1-.06184.76515C43.5164,21.37345,44.371,22.71809,43.03733,22.641Z"></path></svg>