<svg height='100px' width='100px'  fill="#000000" xmlns="http://www.w3.org/2000/svg" xmlns:xlink="http://www.w3.org/1999/xlink" version="1.1" x="0px" y="0px" viewBox="0 0 100 100" enable-background="new 0 0 100 100" xml:space="preserve"><path d="M9.125,43.521c0-13.701,6.623-22.904,12.81-22.904c0.553,0,1,0.447,1,1s-0.447,1-1,1c-5.103,0-10.81,8.939-10.81,20.904  s5.707,20.905,10.81,20.905c0.553,0,1,0.447,1,1s-0.447,1-1,1C15.748,66.427,9.125,57.223,9.125,43.521z M27.886,63.177  c0.275,0,0.55-0.113,0.748-0.336c3.114-3.509,5.267-9.071,5.905-15.263c0.057-0.55-0.343-1.041-0.893-1.098  c-0.559-0.04-1.04,0.343-1.098,0.893c-0.596,5.784-2.568,10.938-5.411,14.14c-0.366,0.413-0.329,1.045,0.084,1.412  C27.412,63.094,27.649,63.177,27.886,63.177z M86.104,67.377c-0.036,0.036-0.261,0.223-0.342,0.281  c-0.457,0.361-0.924,0.698-1.406,0.992c-0.94,0.65-1.874,1.271-2.783,1.827c-0.026,0.016-0.054,0.021-0.081,0.034  c-0.141,3.263,0.191,7.005,1.4,11.049c0.261,0.874-0.23,1.374-0.711,1.496l-3.746,0.937c-0.199,0.047-0.38,0.023-0.445,0.01  l-10.424-2.095c-0.259-0.052-0.485-0.204-0.632-0.424c-0.058-0.081-1.563-2.186-5.768-3.032c-0.062-0.012-0.38,0-0.409,0.005  c-3.114,0.54-6.324,0.812-9.575,0.812c-0.613,0-1.229-0.025-1.843-0.044c0.258,3.499,1.179,7.027,3.226,10.157  c0.15,0.23,0.249,0.583,0.177,0.845c-0.092,0.331-0.419,0.571-0.748,0.664c-0.007,0.004-4.498,1.204-4.498,1.204  c-0.086,0.023-0.377,0.057-0.524,0.057c-0.238,0-0.506-0.1-0.722-0.169l-10.59-3.103c-0.335-0.099-0.595-0.365-0.685-0.702  c-0.013-0.048-1.222-4.372-4.398-5.847c-0.052,0.22-0.086,0.493-0.083,0.703c0.007,0.481-0.331,0.9-0.804,0.995  c0,0-6.264,1.272-6.289,1.265l-6.998-2.057c-0.263-0.077-0.571-0.241-0.696-0.484c-0.126-0.244-0.056-0.548,0.034-0.807  c0.029-0.084,2.895-8.521-1.833-14.75c-0.017-0.023,0.015,0.024,0,0C8.7,62.62,5.125,53.683,5.125,43.521  c0-11.667,4.666-21.62,11.167-25.34c0.012-0.01,0.019-0.024,0.032-0.033c0.125-0.087,4.734-3.218,12.188-6.003  c0.088-0.051,0.183-0.083,0.285-0.104c10.8-3.984,27.416-7.162,45.02,0.471c0.053,0.02,0.197,0.083,0.216,0.094  c3.382,1.483,6.799,3.362,10.218,5.716c0.562,0.335,1.098,0.731,1.623,1.153c0.045,0.033,0.166,0.136,0.187,0.154  c5.489,4.557,9.066,13.785,9.066,23.892C95.125,53.602,91.567,62.807,86.104,67.377z M44.844,43.579  c0-14.113-6.607-26.451-15.75-29.522c-2.34,0.879-4.384,1.79-6.08,2.622c8.767,0.895,15.73,12.589,15.73,26.843  c0,14.301-7.008,26.028-15.816,26.854c1.272,0.632,2.737,1.309,4.381,1.984c5.753,0.986,11.647-4.802,14.29-10.788  C43.631,56.972,44.844,50.246,44.844,43.579z M21.935,68.427c8.166,0,14.81-11.173,14.81-24.905s-6.644-24.904-14.81-24.904  c-1.522,0-2.991,0.389-4.374,1.109c-0.052,0.034-0.155,0.086-0.183,0.102c-5.943,3.24-10.252,12.634-10.252,23.693  C7.125,57.254,13.769,68.427,21.935,68.427z M28.558,82.217c0.02-0.122,0.048-0.252,0.081-0.383  c-1.306-0.148-2.346,0.027-3.069,0.568c-0.21,0.157-0.374,0.336-0.514,0.518L28.558,82.217z M45.246,89.606  c-4.551-13.13-0.716-24.725,0.989-28.819l-2.01,0.119c-0.02,0.001-0.166,0.018-0.214,0.011c-0.192,0.514-0.373,0.988-0.582,1.462  c-2.776,6.288-8.581,12.099-14.794,12.099c-2.995,0-9.478-3.785-11.09-4.774c1.846,4.86,0.928,9.812,0.382,11.895l4.815,1.411  c0.257-0.684,0.736-1.543,1.627-2.21c1.339-1.004,3.17-1.278,5.444-0.822c4.43,0.893,6.369,5.514,6.92,7.134L45.246,89.606z   M50.677,60.526l-2.196,0.13c-1.188,2.635-6.275,15.36-0.949,29.361l2.649-0.708C44.187,78.671,48.821,65.065,50.677,60.526z   M60.315,76.502c8.09-3.099,10.148-10.197,11.962-16.464c0.19-0.659,0.377-1.301,0.564-1.92c0.058-0.171,0.172-0.356,0.307-0.475  c0.168-0.147,0.314-0.192,0.559-0.228c0.008-0.001,9.359-0.786,9.359-0.786c1.351-3.03,2.82-8.265,2.82-13.869  c0-12.121-6.71-24.602-12.793-28.375c-15.782-6.86-30.755-4.729-41.184-1.316c8.789,4.405,14.933,16.68,14.933,30.51  c0,5.405-0.784,10.855-2.14,15.296l7.483-0.441c0.332-0.018,0.729,0.111,0.915,0.382c0.191,0.277,0.193,0.741,0.046,1.049  c-0.057,0.12-3.935,8.369-3.892,17.357C53.016,77.35,56.733,77.116,60.315,76.502z M82.063,58.72l-2.418,0.203  c-0.788,1.83-4.504,11.491-0.802,22.928l1.923-0.487C77.79,70.67,80.566,62.161,82.063,58.72z M76.703,81.727  c-3.164-10.518-0.561-19.321,0.702-22.617l-2.84,0.238c-0.122,0.411-0.243,0.818-0.367,1.246  c-1.648,5.695-3.667,12.621-10.485,16.504c2.628,0.935,4.057,2.287,4.607,2.925L76.703,81.727z M81.694,68.022  c0.962-0.622,1.937-1.283,2.926-2.005c5.14-4.105,8.506-12.842,8.506-22.496c0-9.599-3.329-18.293-8.421-22.424  c-1.809-1.326-3.619-2.507-5.425-3.565c4.723,6.021,8.608,15.62,8.608,25.227c0,6.264-1.681,11.984-3.254,15.25  C84.627,58.021,82.416,61.986,81.694,68.022z M47.129,16.682c0.089-0.021,9.022-2.171,22.209,1.892  c0.098,0.03,0.196,0.044,0.294,0.044c0.428,0,0.823-0.275,0.956-0.706c0.162-0.527-0.134-1.087-0.662-1.25  c-13.71-4.225-22.898-2.016-23.281-1.919c-0.536,0.134-0.862,0.677-0.728,1.212C46.051,16.49,46.593,16.815,47.129,16.682z   M76.673,26.949c0.103,0.033,0.207,0.049,0.31,0.049c0.422,0,0.813-0.269,0.951-0.69c0.171-0.525-0.116-1.09-0.642-1.261  c-18.798-6.118-30.201-3.032-30.677-2.899c-0.531,0.15-0.841,0.703-0.691,1.234c0.151,0.531,0.704,0.842,1.234,0.691  C47.269,24.041,58.447,21.017,76.673,26.949z"></path></svg>